<?xml version="1.0" standalone="no"?><!DOCTYPE svg PUBLIC "-//W3C//DTD SVG 1.1//EN" "http://www.w3.org/Graphics/SVG/1.1/DTD/svg11.dtd"><svg t="1631881574923" class="icon" viewBox="0 0 1024 1024" version="1.1" xmlns="http://www.w3.org/2000/svg" p-id="4998" xmlns:xlink="http://www.w3.org/1999/xlink" width="200" height="200"><defs><style type="text/css"></style></defs><path d="M381.780244 133.018464m33.941125 33.941125l220.84359 220.84359q33.941125 33.941125 0 67.882251l0 0q-33.941125 33.941125-67.882251 0l-220.84359-220.84359q-33.941125-33.941125 0-67.882251l0 0q33.941125-33.941125 67.882251 0Z" p-id="4999"></path><path d="M533.479991 422.0307m33.941126-33.941126l373.804928-373.804928q33.941125-33.941125 67.882251 0l0 0q33.941125 33.941125 0 67.882251l-373.804928 373.804928q-33.941125 33.941125-67.882251 0l0 0q-33.941125-33.941125 0-67.882251Z" p-id="5000"></path><path d="M449.611334 200.878446m-33.941126 33.941126l-333.528126 333.528126q-33.941125 33.941125-67.882251 0l0 0q-33.941125-33.941125 0-67.882251l333.528126-333.528126q33.941125-33.941125 67.882251 0l0 0q33.941125 33.941125 0 67.882251Z" p-id="5001"></path><path d="M1024 0m0 48l0 160q0 48-48 48l0 0q-48 0-48-48l0-160q0-48 48-48l0 0q48 0 48 48Z" p-id="5002"></path><path d="M1024 96m-48 0l-160 0q-48 0-48-48l0 0q0-48 48-48l160 0q48 0 48 48l0 0q0 48-48 48Z" p-id="5003"></path><path d="M0 1024V48A48 48 0 0 1 48 0a48 48 0 0 1 48 48V1024H0z" p-id="5004"></path><path d="M0 928h976a48 48 0 0 1 48 48 48 48 0 0 1-48 48H0v-96z" p-id="5005"></path><path d="M332.16 1024V496A48 48 0 0 1 380.16 448a48 48 0 0 1 48 48V1024h-96zM780.16 1024V432a48 48 0 0 1 48-48 48 48 0 0 1 48 48V1024h-96zM556.16 1024v-336a48 48 0 0 1 48-48 48 48 0 0 1 48 48V1024h-96z" p-id="5006"></path></svg>